<svg width="36" height="36" viewBox="0 0 36 36" fill="none" xmlns="http://www.w3.org/2000/svg">
<path d="M23.3798 21.5732H13.4747C12.9809 21.5732 12.5801 21.974 12.5801 22.4679C12.5801 22.9617 12.9809 23.3625 13.4747 23.3625H23.3798C23.8736 23.3625 24.2744 22.9617 24.2744 22.4679C24.2744 21.974 23.8736 21.5732 23.3798 21.5732Z" fill="#E384FF"/>
<path d="M25.6774 10.319C25.3267 9.96836 24.7613 9.96836 24.4106 10.319L23.3764 11.3532L22.3423 10.319C21.9916 9.96836 21.4262 9.96836 21.0755 10.319C20.7248 10.6697 20.7248 11.2351 21.0755 11.5858L22.1097 12.62L21.0755 13.6541C20.7248 14.0048 20.7248 14.5702 21.0755 14.9209C21.2509 15.0963 21.4799 15.1821 21.7089 15.1821C21.9379 15.1821 22.1669 15.0963 22.3423 14.9209L23.3764 13.8867L24.4106 14.9209C24.586 15.0963 24.815 15.1821 25.044 15.1821C25.273 15.1821 25.502 15.0963 25.6774 14.9209C26.0281 14.5702 26.0281 14.0048 25.6774 13.6541L24.6432 12.62L25.6774 11.5858C26.0281 11.2351 26.0281 10.6697 25.6774 10.319Z" fill="#E384FF"/>
<path d="M29.0768 12.62C29.0768 9.4781 26.5218 6.9231 23.38 6.9231C22.1633 6.9231 20.9788 7.3203 20.0055 8.03599H12.3942C10.1398 8.03599 8.30762 9.87173 8.30762 12.1261V22.7147C8.30762 24.9691 10.1398 26.8013 12.3942 26.8013H22.9864C25.2408 26.8013 27.0729 24.9691 27.0729 22.7147V16.9499C28.3361 15.8728 29.0768 14.2875 29.0768 12.62ZM12.3942 9.82521H15.7364C15.2498 10.5123 14.9599 11.3532 14.9599 12.2585V12.3766C14.9599 13.0279 14.7059 13.6362 14.2478 14.0979C13.7898 14.5595 13.1814 14.81 12.5302 14.81C11.6248 14.81 10.7839 15.0998 10.0968 15.5865V12.1261C10.0968 10.8558 11.1274 9.82521 12.3942 9.82521ZM25.2837 22.7147C25.2837 23.9815 24.2531 25.0121 22.9864 25.0121H12.3942C11.1274 25.0121 10.0968 23.9815 10.0968 22.7147V19.0325C10.0968 17.6906 11.1883 16.5992 12.5302 16.5992C13.661 16.5992 14.7202 16.159 15.5146 15.361C16.3126 14.5631 16.7491 13.5038 16.7491 12.3766V12.2585C16.7491 11.2136 17.4112 10.3226 18.3344 9.97908C17.9121 10.7842 17.6867 11.6896 17.6867 12.62C17.6867 13.3607 17.8334 14.0656 18.0911 14.7133H17.2072C16.7134 14.7133 16.3126 15.1141 16.3126 15.608C16.3126 16.1018 16.7134 16.5026 17.2072 16.5026H19.229C19.9733 17.297 20.9359 17.8767 22.0238 18.1451H13.4784C12.9846 18.1451 12.5838 18.5458 12.5838 19.0397C12.5838 19.5335 12.9846 19.9343 13.4784 19.9343H23.3836C23.8774 19.9343 24.2782 19.5335 24.2782 19.0397C24.2782 18.7283 24.1171 18.4528 23.8774 18.2954C24.3605 18.2524 24.8328 18.1522 25.2873 17.9912V22.7183L25.2837 22.7147ZM25.6559 15.794C24.9903 16.27 24.203 16.524 23.38 16.524C21.2258 16.524 19.4759 14.7742 19.4759 12.62C19.4759 11.457 19.9876 10.3655 20.8822 9.61766C21.58 9.03437 22.4675 8.71231 23.38 8.71231C25.5342 8.71231 27.2876 10.4657 27.2876 12.62C27.2876 13.8724 26.6757 15.0605 25.6559 15.794Z" fill="#E384FF"/>
</svg>
