<svg width="36" height="36" viewBox="0 0 36 36" fill="none" xmlns="http://www.w3.org/2000/svg">
<g clip-path="url(#clip0_82_549)">
<path d="M28.1594 18.7808C26.9551 18.2945 25.6253 18.2148 24.3164 18.5418C23.9401 18.6383 23.5804 18.7682 23.2334 18.9233L22.3677 17.5273C23.133 16.5881 23.2626 15.2256 22.5894 14.1397L20.6491 10.9996C19.8002 9.62867 18.002 9.20942 16.6346 10.0563C15.9739 10.4672 15.5097 11.1128 15.3341 11.8716C15.1585 12.6305 15.2839 13.4145 15.6937 14.0769L17.634 17.217C18.0438 17.8794 18.6878 18.3448 19.4447 18.5209C19.6664 18.5712 19.8922 18.6005 20.1138 18.6005C20.2602 18.6005 20.4023 18.5879 20.5445 18.567L21.4687 20.0595C19.7709 21.5814 18.8551 23.9082 19.2816 26.2056C19.3569 26.6081 19.4698 26.9938 19.6162 27.3502C19.7834 27.7568 20.1723 28 20.5821 28C20.716 28 20.8498 27.9748 20.9794 27.9203C21.5147 27.7023 21.7698 27.0902 21.5481 26.5536C21.4561 26.3314 21.385 26.084 21.339 25.8241C20.9125 23.5183 22.4723 21.1663 24.8224 20.5752C25.4622 20.4159 26.1104 20.3991 26.7209 20.529V24.8012C26.7209 25.3839 26.2484 25.8577 25.6671 25.8577C25.0859 25.8577 24.6217 26.3272 24.6217 26.9058C24.6217 27.4843 25.09 27.9539 25.6671 27.9539C27.4025 27.9539 28.8118 26.541 28.8118 24.8012V20.0176C28.8118 19.9756 28.8034 19.9337 28.7992 19.8918C28.8619 19.4264 28.611 18.9611 28.1552 18.7808H28.1594ZM19.9298 16.4791C19.7165 16.4288 19.5325 16.2989 19.4196 16.1102L17.4751 12.9701C17.358 12.7814 17.3246 12.5634 17.3748 12.3454C17.425 12.1316 17.5546 11.9471 17.7428 11.8339C17.8766 11.75 18.0271 11.7081 18.1735 11.7081C18.4495 11.7081 18.7171 11.8465 18.876 12.098L20.8163 15.2382C21.0547 15.6239 20.9376 16.1354 20.5529 16.3743C20.3647 16.4917 20.1431 16.5253 19.9298 16.4749V16.4791Z" fill="#E384FF"/>
<path d="M20.5322 9.09623H25.6716C26.2528 9.09623 26.7254 9.56997 26.7254 10.1527V11.335C26.7254 11.9136 27.1937 12.3831 27.7708 12.3831C28.3479 12.3831 28.8162 11.9136 28.8162 11.335V10.1527C28.8162 8.41286 27.407 7 25.6716 7H20.5322C19.9552 7 19.4868 7.46955 19.4868 8.04811C19.4868 8.62667 19.9552 9.09623 20.5322 9.09623Z" fill="#E384FF"/>
<path d="M10.1446 25.8535C9.56339 25.8535 9.09086 25.3797 9.09086 24.797V10.1527C9.09086 9.56997 9.56339 9.09623 10.1446 9.09623H14.226C14.8031 9.09623 15.2714 8.62667 15.2714 8.04811C15.2714 7.46955 14.8031 7 14.226 7H10.1446C8.40924 7 7 8.41286 7 10.1527V24.8012C7 26.541 8.40924 27.9539 10.1446 27.9539C10.7217 27.9539 11.1901 27.4843 11.1901 26.9058C11.1901 26.3272 10.7217 25.8577 10.1446 25.8577V25.8535Z" fill="#E384FF"/>
<path d="M17.0068 22.1221H15.9697V21.0824C15.9697 20.5039 15.5014 20.0343 14.9243 20.0343C14.3472 20.0343 13.8789 20.5039 13.8789 21.0824V22.1221H12.8418C12.2647 22.1221 11.7964 22.5917 11.7964 23.1703C11.7964 23.7488 12.2647 24.2184 12.8418 24.2184H13.8789V25.2581C13.8789 25.8367 14.3472 26.3062 14.9243 26.3062C15.5014 26.3062 15.9697 25.8367 15.9697 25.2581V24.2184H17.0068C17.5839 24.2184 18.0522 23.7488 18.0522 23.1703C18.0522 22.5917 17.5839 22.1221 17.0068 22.1221Z" fill="#E384FF"/>
<path d="M27.9546 14.2278H25.086C24.5089 14.2278 24.0405 14.6973 24.0405 15.2759C24.0405 15.8545 24.5089 16.324 25.086 16.324H27.9546C28.5317 16.324 29 15.8545 29 15.2759C29 14.6973 28.5317 14.2278 27.9546 14.2278Z" fill="#E384FF"/>
</g>
<defs>
<clipPath id="clip0_82_549">
<rect width="22" height="21" fill="white" transform="translate(7 7)"/>
</clipPath>
</defs>
</svg>
