<svg width="24" height="24" viewBox="0 0 24 24" fill="none" xmlns="http://www.w3.org/2000/svg">
<path d="M19.5798 4.19439V4.04654C19.5798 1.81246 17.7681 0 15.5471 0H8.44748C6.22101 0 4.41474 1.81793 4.41474 4.04654V4.19986C1.92088 4.57221 0 6.72964 0 9.33607V18.8036C0 21.6673 2.3247 24 5.17872 24H18.8213C21.6753 24 24 21.6673 24 18.8036V9.32512C24 6.71869 22.0791 4.56126 19.5853 4.18891L19.5798 4.19439ZM7.13779 4.04654C7.13779 3.32375 7.72169 2.73785 8.44202 2.73785H15.5416C16.2619 2.73785 16.8458 3.32375 16.8458 4.04654V13.4812L11.9891 9.40178L7.13234 13.4812V4.04107L7.13779 4.04654ZM21.266 18.7981C21.266 20.1561 20.1692 21.2567 18.8158 21.2567H5.17326C3.81992 21.2567 2.72306 20.1561 2.72306 18.7981V9.32512C2.72306 8.24093 3.43247 7.32649 4.40928 7.00342V15.9617C4.40928 16.5749 4.76398 17.1335 5.3206 17.3963C5.53342 17.4949 5.75716 17.5441 5.98636 17.5441C6.35198 17.5441 6.71214 17.4182 7.00137 17.1773L12 12.9774L16.9986 17.1773C17.4679 17.5715 18.1228 17.6591 18.6739 17.3963C19.2251 17.1389 19.5853 16.5749 19.5853 15.9617V7.00342C20.5621 7.32649 21.2715 8.24093 21.2715 9.32512V18.7926L21.266 18.7981Z" fill="white"/>
</svg>
