<svg width="24" height="24" viewBox="0 0 24 24" fill="none" xmlns="http://www.w3.org/2000/svg">
<path d="M18.8213 4.13415H16.3001V3.24162C16.3001 1.45106 14.8486 0 13.0696 0H10.9304C9.14598 0 7.69986 1.45654 7.69986 3.24162V4.13415H5.17872C2.32469 4.13415 0 6.4668 0 9.3306V18.8036C0 21.6673 2.32469 24 5.17872 24H18.8213C21.6753 24 24 21.6673 24 18.8036V9.3306C24 6.4668 21.6753 4.13415 18.8213 4.13415ZM10.4284 3.24162C10.4284 2.96235 10.6521 2.73785 10.9304 2.73785H13.0696C13.3479 2.73785 13.5716 2.96235 13.5716 3.24162V5.48118C13.5716 5.48118 13.5716 5.49213 13.5716 5.4976C13.5716 5.50308 13.5716 5.50855 13.5716 5.51403V11.3949C13.5716 12.1506 14.1828 12.7639 14.9359 12.7639H15.0832L12 16.7392L8.91678 12.7639H9.06412C9.81719 12.7639 10.4284 12.1506 10.4284 11.3949V3.24162ZM21.2715 18.8036C21.2715 20.1615 20.1746 21.2621 18.8213 21.2621H5.17872C3.82537 21.2621 2.72851 20.1615 2.72851 18.8036V9.3306C2.72851 7.97262 3.82537 6.872 5.17872 6.872H7.69986V10.0315H6.12824C5.60437 10.0315 5.1296 10.3272 4.90041 10.7981C4.67121 11.269 4.73124 11.8275 5.04775 12.2382L10.9195 19.8111C11.176 20.1451 11.5744 20.3368 11.9945 20.3368C12.4147 20.3368 12.8131 20.1396 13.0696 19.8111L18.9413 12.2382C19.2633 11.8275 19.3179 11.2635 19.0887 10.7981C18.8595 10.3272 18.3847 10.0315 17.8608 10.0315H16.2892V6.872H18.8104C20.1637 6.872 21.2606 7.97262 21.2606 9.3306V18.8036H21.2715Z" fill="white"/>
</svg>
