<svg width="20" height="20" viewBox="0 0 20 20" fill="none" xmlns="http://www.w3.org/2000/svg">
<path d="M18.0321 4.52735C17.0719 3.54278 15.7958 3 14.4377 3C13.0795 3 11.8035 3.54278 10.8433 4.52735L9.34978 6.05891L6.01391 9.47966L3.92951 11.6171C3.5274 12.0295 3.5274 12.6942 3.92951 13.1066C4.13057 13.3128 4.39317 13.4137 4.65577 13.4137C4.91837 13.4137 5.18097 13.3128 5.38203 13.1066L6.81403 11.6381C7.63466 12.1978 8.5989 12.4965 9.60828 12.4965C10.9664 12.4965 12.2425 11.9537 13.2026 10.9691L18.0362 6.01262C18.4383 5.60028 18.4383 4.93548 18.0362 4.52314L18.0321 4.52735ZM11.7501 9.48387C11.1757 10.0729 10.4166 10.3927 9.60828 10.3927C9.15283 10.3927 8.71379 10.2917 8.31578 10.0982L12.2958 6.01262C12.8703 5.42777 13.6294 5.10379 14.4377 5.10379C14.8931 5.10379 15.3322 5.20477 15.7302 5.39832L11.7501 9.47966V9.48387Z" fill="white"/>
<path d="M13.1535 11.9537C12.5873 11.9537 12.1278 12.4249 12.1278 13.0056V14.7475C12.1278 15.0925 11.8528 15.3744 11.5164 15.3744H3.66295C3.32649 15.3744 3.05158 15.0925 3.05158 14.7475V6.69422C3.05158 6.3492 3.32649 6.06729 3.66295 6.06729H7.7702C8.33644 6.06729 8.79599 5.59604 8.79599 5.01539C8.79599 4.43475 8.33644 3.9635 7.7702 3.9635H3.66295C2.19402 3.9635 1 5.1879 1 6.69422V14.7475C1 16.2538 2.19402 17.4782 3.66295 17.4782H11.5164C12.9853 17.4782 14.1793 16.2538 14.1793 14.7475V13.0056C14.1793 12.4249 13.7198 11.9537 13.1535 11.9537Z" fill="white"/>
</svg>
