<svg width="20" height="20" viewBox="0 0 20 20" fill="none" xmlns="http://www.w3.org/2000/svg">
<g clip-path="url(#clip0_212_1489)">
<path d="M10 15C7.24388 15 5 12.7561 5 10C5 7.24388 7.24388 5 10 5C12.7561 5 15 7.24388 15 10C15 12.7561 12.7561 15 10 15ZM10 6.67038C8.16537 6.67038 6.67038 8.16258 6.67038 10C6.67038 11.8374 8.16258 13.3296 10 13.3296C11.8374 13.3296 13.3296 11.8374 13.3296 10C13.3296 8.16258 11.8374 6.67038 10 6.67038Z" fill="white"/>
<path d="M10.0098 12.4722C11.3779 12.4722 12.487 11.3653 12.487 9.99999C12.487 8.63466 11.3779 7.52783 10.0098 7.52783C8.64176 7.52783 7.53271 8.63466 7.53271 9.99999C7.53271 11.3653 8.64176 12.4722 10.0098 12.4722Z" fill="white"/>
</g>
<defs>
<clipPath id="clip0_212_1489">
<rect width="10" height="10" fill="white" transform="translate(5 5)"/>
</clipPath>
</defs>
</svg>
