<svg width="783" height="130" viewBox="0 0 783 130" fill="none" xmlns="http://www.w3.org/2000/svg">
<g clip-path="url(#clip0_89_1444)">
<path d="M0 0H15.6974V55.9486H60.9614V0H76.6786V55.9486H100.821V71.9808H76.6786V125.49H60.9614V71.9808H15.6974V125.49H0V0Z" fill="white"/>
<path d="M200.986 36.9437C213.186 36.9437 223.757 41.126 232.699 49.4906C241.62 57.8552 246.091 68.2495 246.091 80.6734C246.091 96.7056 239.494 108.555 226.32 116.223C215.73 122.373 202.059 125.449 185.289 125.449V0H200.986V36.9437ZM200.986 53.1604V109.458C208.636 109.458 215.451 106.649 221.432 101.011C227.393 95.373 230.374 88.6075 230.374 80.7144C230.374 72.8213 227.413 66.2608 221.512 61.033C215.59 55.8051 208.755 53.2014 200.986 53.2014V53.1604ZM259.921 0H275.638V125.469H259.921V0Z" fill="white"/>
<path d="M437.777 125.469H422.06V88.5255C409.86 88.5255 399.289 84.3227 390.347 75.8966C381.426 67.4704 376.955 57.0967 376.955 44.7958V0H392.672V44.8983C392.672 52.5863 395.693 59.1058 401.713 64.4567C407.734 69.8076 414.529 72.4933 422.06 72.4933V0H437.777V125.469Z" fill="white"/>
<path d="M559.045 54.206C566.615 53.1604 574.007 49.1011 581.24 42.0076C587.439 35.9596 592.466 28.8866 596.321 20.7475C599.361 14.351 601.288 7.44204 602.083 0H617.661C616.529 14.2895 612.257 26.9595 604.825 37.9893C597.394 49.0191 587.379 57.6297 574.762 63.7802C577.345 75.056 582.412 85.3887 589.963 94.7989C598.189 104.906 607.408 111.241 617.661 113.804V130C601.07 125.121 588.134 117.105 578.875 105.952C570.51 95.9675 564.032 81.9035 559.402 63.7802H559.065V125.469H543.367V0H559.065V54.206H559.045Z" fill="white"/>
<path d="M783 0V125.469H767.283V92.8718H730.186C726.112 103.676 723.47 114.542 722.218 125.469H706.302C709.123 100.375 717.429 76.5526 731.219 54.0215C745.009 31.4903 762.276 13.4695 782.98 0H783ZM736.723 76.8601H767.283V33.2944C754.725 45.9644 744.532 60.4794 736.723 76.8601Z" fill="white"/>
</g>
<defs>
<clipPath id="clip0_89_1444">
<rect width="783" height="130" fill="white"/>
</clipPath>
</defs>
</svg>
