<?xml version="1.0" encoding="UTF-8"?>
<svg id="_Слой_2" data-name="Слой 2" xmlns="http://www.w3.org/2000/svg" viewBox="0 0 33.45 32.12">
  <defs>
    <style>
      .cls-1 {
        fill: #fff;
      }
    </style>
  </defs>
  <g id="_Слой_2-2" data-name="Слой 2">
    <g>
      <path class="cls-1" d="M32.72,3.35c-.98-.98-2.56-.98-3.54,0l-13.13,13.12-4.63-4.62c-.98-.98-2.56-.98-3.54,0-.98,.98-.98,2.56,0,3.54l6.39,6.39c.49,.49,1.13,.73,1.77,.73s1.28-.24,1.77-.73l14.89-14.89c.98-.98,.98-2.56,0-3.54Z"/>
      <path class="cls-1" d="M29.62,13.82c-1.38,0-2.5,1.12-2.5,2.5v9.31c0,.82-.67,1.49-1.49,1.49H6.49c-.82,0-1.49-.67-1.49-1.49V6.49c0-.82,.67-1.49,1.49-1.49H24.3c1.38,0,2.5-1.12,2.5-2.5s-1.12-2.5-2.5-2.5H6.49C2.91,0,0,2.91,0,6.49V25.63c0,3.58,2.91,6.49,6.49,6.49,0,0,0,0,0,0H25.63c3.58,0,6.49-2.91,6.49-6.49v-9.31c0-1.38-1.12-2.5-2.5-2.5Z"/>
    </g>
  </g>
</svg>