<?xml version="1.0" encoding="UTF-8"?>
<svg id="_Слой_2" data-name="Слой 2" xmlns="http://www.w3.org/2000/svg" viewBox="0 0 32.12 30.18">
  <defs>
    <style>
      .cls-1 {
        fill: #fff;
      }
    </style>
  </defs>
  <g id="_Слой_2-2" data-name="Слой 2">
    <path class="cls-1" d="M23.95,30.18H8.17C3.67,30.18,0,26.52,0,22.01V9.12c0-1.48,1-2.77,2.43-3.14,1.26-.33,2.58,.14,3.37,1.13l3.79,3.57L13.79,1.46c.41-.89,1.3-1.46,2.27-1.46h0c.98,0,1.87,.57,2.27,1.46l4.2,9.22,3.79-3.57c.79-1,2.1-1.46,3.37-1.13,1.43,.37,2.43,1.66,2.43,3.14v12.9c0,4.5-3.67,8.17-8.17,8.17ZM5,13.23v8.79c0,1.75,1.42,3.17,3.17,3.17h15.78c1.75,0,3.17-1.42,3.17-3.17V13.23l-3.7,3.49c-.59,.55-1.41,.79-2.2,.63-.79-.15-1.46-.68-1.79-1.42l-3.37-7.4-3.37,7.4c-.33,.73-1,1.26-1.79,1.42-.79,.15-1.61-.08-2.2-.63l-3.7-3.49Z"/>
  </g>
</svg>