<?xml version="1.0" encoding="UTF-8"?>
<svg id="_Слой_2" data-name="Слой 2" xmlns="http://www.w3.org/2000/svg" viewBox="0 0 42.24 34.41">
  <defs>
    <style>
      .cls-1 {
        fill: #fff;
      }
    </style>
  </defs>
  <g id="_Слой_2-2" data-name="Слой 2">
    <g>
      <path class="cls-1" d="M41.51,3.63c-2.34-2.34-5.45-3.63-8.76-3.63s-6.42,1.29-8.76,3.63l-3.64,3.64L12.22,15.4l-5.08,5.08c-.98,.98-.98,2.56,0,3.54,.49,.49,1.13,.73,1.77,.73s1.28-.24,1.77-.73l3.49-3.49c2,1.33,4.35,2.04,6.81,2.04,3.31,0,6.42-1.29,8.76-3.63l11.78-11.78c.98-.98,.98-2.56,0-3.54Zm-15.31,11.78c-1.4,1.4-3.25,2.16-5.22,2.16-1.11,0-2.18-.24-3.15-.7L27.53,7.16c1.4-1.39,3.25-2.16,5.22-2.16,1.11,0,2.18,.24,3.15,.7l-9.7,9.7Z"/>
      <path class="cls-1" d="M29.62,21.28c-1.38,0-2.5,1.12-2.5,2.5v4.14c0,.82-.67,1.49-1.49,1.49H6.49c-.82,0-1.49-.67-1.49-1.49V8.78c0-.82,.67-1.49,1.49-1.49h10.01c1.38,0,2.5-1.12,2.5-2.5s-1.12-2.5-2.5-2.5H6.49C2.91,2.29,0,5.2,0,8.78V27.92c0,3.58,2.91,6.49,6.49,6.49H25.63c3.58,0,6.49-2.91,6.49-6.49v-4.14c0-1.38-1.12-2.5-2.5-2.5Z"/>
    </g>
  </g>
</svg>