<svg width="36" height="36" viewBox="0 0 36 36" fill="none" xmlns="http://www.w3.org/2000/svg">
<g clip-path="url(#clip0_74_494)">
<path d="M23.552 22.2706H11.6858C11.1269 22.2706 10.6733 22.7098 10.6733 23.251C10.6733 23.7922 11.1269 24.2314 11.6858 24.2314H23.552C24.1109 24.2314 24.5645 23.7922 24.5645 23.251C24.5645 22.7098 24.1109 22.2706 23.552 22.2706Z" fill="#E384FF"/>
<path d="M27.2252 19.9725C26.6663 19.9725 26.2127 20.4118 26.2127 20.9529V23.5216C26.2127 24.9098 25.0463 26.0392 23.6127 26.0392H11.625C10.1913 26.0392 9.02495 24.9098 9.02495 23.5216V19.4863C9.02495 18.749 9.33274 18.0824 9.83088 17.6C10.0779 17.3608 10.3776 17.1647 10.7057 17.0275C10.7867 16.9922 10.8717 16.9647 10.9567 16.9373C11.0215 16.9176 11.0863 16.902 11.1552 16.8863C11.2564 16.8627 11.3577 16.8431 11.463 16.8353C11.5683 16.8274 11.6736 16.8196 11.7789 16.8196C11.872 16.8196 11.9652 16.8157 12.0543 16.8078C12.1474 16.8039 12.2406 16.7961 12.3297 16.7843C12.354 16.7804 12.3823 16.7804 12.4066 16.7765C12.4107 16.7725 12.4147 16.7725 12.4188 16.7765C12.4431 16.7725 12.4674 16.7686 12.4917 16.7647C12.597 16.749 12.7023 16.7294 12.8075 16.7059H12.8197C12.9209 16.6824 13.0262 16.6588 13.1275 16.6275C13.168 16.6196 13.2085 16.6078 13.249 16.5922C13.3016 16.5765 13.3543 16.5608 13.4029 16.5373C13.4717 16.5137 13.5406 16.4902 13.6094 16.4627C13.6823 16.4353 13.7512 16.4039 13.82 16.3725C14.0266 16.2824 14.225 16.1725 14.4113 16.0471C14.6219 15.9176 14.8163 15.7647 15.0026 15.6C15.039 15.5647 15.0755 15.5333 15.1119 15.498C15.1281 15.4902 15.1443 15.4745 15.1565 15.4627C15.1808 15.4392 15.201 15.4157 15.2172 15.3922C15.2253 15.3882 15.2294 15.3804 15.2334 15.3765C15.2658 15.3451 15.2942 15.3137 15.3266 15.2824C15.3914 15.2118 15.4562 15.1412 15.5169 15.0667C15.5817 14.9882 15.6425 14.9098 15.6951 14.8314C15.7518 14.7529 15.8085 14.6706 15.8612 14.5882C15.9462 14.4627 16.0191 14.3294 16.0839 14.1961C16.1487 14.0588 16.2095 13.9216 16.2621 13.7804C16.3188 13.6392 16.3674 13.4941 16.4039 13.3451C16.4201 13.2784 16.4363 13.2118 16.4525 13.1412C16.493 12.9647 16.5173 12.7882 16.5335 12.6078C16.5456 12.4706 16.5537 12.3333 16.5537 12.1922V12.0627C16.5537 11.9725 16.5578 11.8784 16.5699 11.7922C16.578 11.7059 16.5902 11.6235 16.6063 11.5451C16.6104 11.5294 16.6145 11.5137 16.6185 11.498C16.6306 11.4235 16.6509 11.349 16.6752 11.2784C16.6995 11.2 16.7278 11.1255 16.7602 11.051C16.7805 11.0078 16.8007 10.9608 16.821 10.9176C16.8331 10.8941 16.8453 10.8706 16.8574 10.851C16.8817 10.8 16.9101 10.7529 16.9384 10.7059C16.9425 10.6941 16.9506 10.6863 16.9587 10.6784C16.9911 10.6235 17.0235 10.5765 17.0599 10.5255C17.1328 10.4235 17.2138 10.3255 17.3029 10.2353C17.311 10.2275 17.3191 10.2196 17.3232 10.2157C17.3596 10.1804 17.392 10.149 17.4285 10.1176C17.4528 10.0941 17.4811 10.0706 17.5095 10.0471C17.5419 10.0196 17.5743 9.99216 17.6107 9.9647C17.7241 9.87843 17.8456 9.8 17.9712 9.73333C18.0238 9.70196 18.0765 9.67451 18.1332 9.6549C18.1453 9.64706 18.1534 9.64314 18.1615 9.63921C18.2142 9.61569 18.2668 9.59216 18.3195 9.57647C18.3235 9.57647 18.3276 9.57647 18.3316 9.57647C18.3357 9.57255 18.3397 9.57255 18.3478 9.57255C18.6475 9.45882 18.9715 9.4 19.3076 9.4H19.5628C19.8422 9.4 20.0974 9.2902 20.2796 9.11372C20.4619 8.93333 20.5752 8.6902 20.5752 8.41961C20.5752 7.87843 20.1217 7.43921 19.5628 7.43921H11.625C9.07355 7.43529 7 9.44706 7 11.9176V23.5216C7 25.9922 9.07355 28 11.625 28H23.6127C26.1641 28 28.2376 25.9922 28.2376 23.5216V20.9529C28.2376 20.4118 27.7841 19.9725 27.2252 19.9725ZM9.02495 11.9176C9.02495 11.2235 9.31654 10.5922 9.78633 10.1373C9.84303 10.0784 9.90782 10.0235 9.97262 9.97255C10.4181 9.61176 10.9972 9.39608 11.625 9.39608H15.4076C15.3387 9.4902 15.2739 9.58823 15.2132 9.68627C15.0876 9.88627 14.9783 10.0941 14.8892 10.3098C14.8041 10.502 14.7353 10.702 14.6827 10.9059C14.5814 11.2745 14.5288 11.6627 14.5288 12.0627V12.1922C14.5288 12.3725 14.5126 12.5451 14.4761 12.7176C14.4761 12.7216 14.4721 12.7255 14.4721 12.7294C14.4559 12.8157 14.4316 12.902 14.4032 12.9843C14.2736 13.3922 14.0428 13.7647 13.7228 14.0745C13.6621 14.1333 13.5973 14.1922 13.5284 14.2471C13.5244 14.251 13.5244 14.2549 13.5203 14.2549C13.3178 14.4118 13.091 14.5451 12.848 14.6471C12.848 14.651 12.8399 14.6549 12.8318 14.6549C12.7347 14.6941 12.6334 14.7294 12.5281 14.7529C12.2892 14.8196 12.0381 14.8549 11.7789 14.8549C10.7502 14.8549 9.80253 15.1725 9.02495 15.7098V11.9176Z" fill="#E384FF"/>
<path d="M23.6573 18.5137C23.6209 18.5098 23.5885 18.5098 23.552 18.5098H11.6858C11.1269 18.5098 10.6733 18.949 10.6733 19.4902C10.6733 20.0313 11.1269 20.4706 11.6858 20.4706H23.552C24.1109 20.4706 24.5645 20.0313 24.5645 19.4902C24.5645 18.9843 24.1676 18.5647 23.6573 18.5137Z" fill="#E384FF"/>
<path d="M19.595 14.7529H18.4246C17.8657 14.7529 17.4121 15.1882 17.4121 15.7333C17.4121 16.2784 17.8657 16.7137 18.4246 16.7137H19.595C20.1539 16.7137 20.6075 16.2745 20.6075 15.7333C20.6075 15.1921 20.1539 14.7529 19.595 14.7529Z" fill="#E384FF"/>
<path d="M30.9873 10.5333H28.9664H27.3181V6.98039C27.3181 6.44706 26.8807 6.01569 26.334 6H26.3016C25.7427 6 25.2891 6.43922 25.2891 6.98039V8.93333V10.5333H21.6199C21.0691 10.5333 20.6236 10.9569 20.6074 11.4863V11.5137C20.6074 12.0549 21.061 12.4941 21.6199 12.4941H23.6408H25.2891V16.0471C25.2891 16.5804 25.7265 17.0118 26.2732 17.0275H26.3056C26.8645 17.0275 27.3181 16.5882 27.3181 16.0471V14.0941V12.4941H30.9873C31.5381 12.4941 31.9836 12.0706 31.9998 11.5412V11.5137C31.9998 10.9725 31.5462 10.5333 30.9873 10.5333Z" fill="#E384FF"/>
</g>
<defs>
<clipPath id="clip0_74_494">
<rect width="25" height="22" fill="white" transform="translate(7 6)"/>
</clipPath>
</defs>
</svg>
