<svg width="36" height="36" viewBox="0 0 36 36" fill="none" xmlns="http://www.w3.org/2000/svg">
<path d="M24.5539 6.93102H12.8306C10.3354 6.93102 8.30762 8.95883 8.30762 11.454V23.1733C8.30762 25.6685 10.3354 27.6963 12.8306 27.6963C13.2148 27.6963 13.5633 27.4745 13.7257 27.126L14.6326 25.1932L17.6704 25.4071C18.0823 25.4388 18.4665 25.209 18.6407 24.8368L19.4487 23.0901L22.5815 22.698C22.9261 22.6545 23.2231 22.4327 23.3657 22.1158L24.336 19.9177L27.2471 19.5296C27.651 19.4741 27.9837 19.1771 28.0788 18.781L29.0491 14.7531C29.0689 14.6779 29.0768 14.5987 29.0768 14.5195V11.4461C29.0768 8.95487 27.049 6.9231 24.5578 6.9231L24.5539 6.93102ZM12.8266 8.9113H16.5258C15.9872 9.67173 15.6664 10.6025 15.6664 11.6045V11.7352C15.6664 13.2204 14.4584 14.4284 12.9732 14.4284C11.9712 14.4284 11.0444 14.7492 10.28 15.2878V11.4579C10.28 10.0559 11.4206 8.91526 12.8227 8.91526L12.8266 8.9113ZM27.0926 14.4086L26.3084 17.6602L23.5202 18.0325C23.1796 18.08 22.8865 18.2979 22.7439 18.6147L21.7736 20.8089L18.6526 21.201C18.312 21.2445 18.0189 21.4584 17.8764 21.7673L17.1238 23.3911L14.094 23.1773C13.6821 23.1456 13.3019 23.3753 13.1276 23.7436L12.2325 25.6487C11.1157 25.3794 10.2839 24.3734 10.2839 23.1733V19.0979C10.2839 17.6127 11.4919 16.4047 12.9771 16.4047C15.5555 16.4047 17.6506 14.3096 17.6506 11.7312V11.6005C17.6506 10.1153 18.8586 8.90734 20.3438 8.90734H24.5499C25.952 8.90734 27.0926 10.048 27.0926 11.45V14.4046V14.4086Z" fill="#E384FF"/>
<path d="M24.9855 14.3175H18.7753C18.2287 14.3175 17.7852 14.7611 17.7852 15.3076C17.7852 15.8542 18.2287 16.2978 18.7753 16.2978H24.9855C25.532 16.2978 25.9756 15.8542 25.9756 15.3076C25.9756 14.7611 25.532 14.3175 24.9855 14.3175Z" fill="#E384FF"/>
<path d="M20.3636 17.7909H13.6386C13.092 17.7909 12.6484 18.2345 12.6484 18.781C12.6484 19.3276 13.092 19.7712 13.6386 19.7712H20.3636C20.9102 19.7712 21.3538 19.3276 21.3538 18.781C21.3538 18.2345 20.9102 17.7909 20.3636 17.7909Z" fill="#E384FF"/>
</svg>
