<svg width="36" height="36" viewBox="0 0 36 36" fill="none" xmlns="http://www.w3.org/2000/svg">
<g clip-path="url(#clip0_86_860)">
<path d="M12.7903 28H11.176C9.42324 28 8 26.5863 8 24.8454V11.1546C8 9.41366 9.42324 8 11.176 8H12.7903C13.4494 8 13.9843 8.53131 13.9843 9.18596C13.9843 9.84061 13.4494 10.3719 12.7903 10.3719H11.176C10.7414 10.3719 10.388 10.723 10.388 11.1546V24.8501C10.388 25.2818 10.7414 25.6328 11.176 25.6328H12.7903C13.4494 25.6328 13.9843 26.1641 13.9843 26.8188C13.9843 27.4734 13.4494 28.0047 12.7903 28.0047V28Z" fill="#E384FF"/>
<path d="M25.8286 28H24.6203C23.9612 28 23.4263 27.4687 23.4263 26.814C23.4263 26.1594 23.9612 25.6281 24.6203 25.6281H25.8286C26.2632 25.6281 26.6166 25.277 26.6166 24.8454V11.1546C26.6166 10.723 26.2632 10.3719 25.8286 10.3719H24.6203C23.9612 10.3719 23.4263 9.84061 23.4263 9.18596C23.4263 8.53131 23.9612 8 24.6203 8H25.8286C27.5814 8 29.0046 9.41366 29.0046 11.1546V24.8501C29.0046 26.5911 27.5814 28.0047 25.8286 28.0047V28Z" fill="#E384FF"/>
<path d="M22.8293 25.5806C22.4663 25.5806 22.1129 25.4146 21.8836 25.1157L18.7936 21.1167L15.7035 25.1157C15.3931 25.5189 14.8581 25.6802 14.371 25.5142C13.8886 25.3529 13.5591 24.8975 13.5591 24.3899V11.6053C13.5591 10.9506 14.094 10.4193 14.7531 10.4193H22.8293C23.4884 10.4193 24.0233 10.9506 24.0233 11.6053V24.3994C24.0233 24.907 23.6985 25.3576 23.2113 25.5237C23.0872 25.5664 22.9534 25.5853 22.8293 25.5853V25.5806ZM18.7936 17.9857C19.1661 17.9857 19.5147 18.1565 19.7392 18.4506L21.6353 20.9032V12.7912H15.9518V20.9032L17.8479 18.4506C18.0724 18.1565 18.4258 17.9857 18.7936 17.9857Z" fill="#E384FF"/>
</g>
<defs>
<clipPath id="clip0_86_860">
<rect width="21" height="20" fill="white" transform="translate(8 8)"/>
</clipPath>
</defs>
</svg>
