<svg width="36" height="36" viewBox="0 0 36 36" fill="none" xmlns="http://www.w3.org/2000/svg">
<path d="M26.5577 19.3982C26.0916 19.3982 25.7134 19.7764 25.7134 20.2425V22.4545C25.7134 23.65 24.7408 24.6226 23.5453 24.6226H13.5524C12.3569 24.6226 11.3809 23.65 11.3809 22.4545V18.9794C11.3809 17.713 12.411 16.683 13.6774 16.683C15.8759 16.683 17.6624 14.8965 17.6624 12.698V12.5866C17.6624 11.3201 18.6924 10.2901 19.9588 10.2901H20.1716C20.6376 10.2901 21.0158 9.91188 21.0158 9.44584C21.0158 8.9798 20.6376 8.60156 20.1716 8.60156H13.5524C11.4248 8.60156 9.69238 10.3306 9.69238 12.4582V22.4511C9.69238 24.5787 11.4248 26.3078 13.5524 26.3078H23.5453C25.6729 26.3078 27.402 24.5787 27.402 22.4511V20.2391C27.402 19.773 27.0237 19.3948 26.5577 19.3948V19.3982ZM13.549 10.2935H16.7033C16.244 10.9419 15.9704 11.7355 15.9704 12.5899V12.7014C15.9704 13.9678 14.9404 14.9978 13.674 14.9978C12.8196 14.9978 12.0293 15.2714 11.3776 15.7306V12.465C11.3776 11.2695 12.3502 10.2969 13.549 10.2969V10.2935Z" fill="#E384FF"/>
<path d="M20.1951 18.1418H13.5996C13.1336 18.1418 12.7554 18.5201 12.7554 18.9861C12.7554 19.4522 13.1336 19.8304 13.5996 19.8304H20.1951C20.6612 19.8304 21.0394 19.4522 21.0394 18.9861C21.0394 18.5201 20.6612 18.1418 20.1951 18.1418Z" fill="#E384FF"/>
<path d="M20.1953 14.9032H19.2193C18.7532 14.9032 18.375 15.2814 18.375 15.7475C18.375 16.2135 18.7532 16.5918 19.2193 16.5918H20.1953C20.6613 16.5918 21.0395 16.2135 21.0395 15.7475C21.0395 15.2814 20.6613 14.9032 20.1953 14.9032Z" fill="#E384FF"/>
<path d="M20.1951 21.3805H13.5996C13.1336 21.3805 12.7554 21.7587 12.7554 22.2248C12.7554 22.6908 13.1336 23.069 13.5996 23.069H20.1951C20.6612 23.069 21.0394 22.6908 21.0394 22.2248C21.0394 21.7587 20.6612 21.3805 20.1951 21.3805Z" fill="#E384FF"/>
<path d="M26.5578 5.53845C24.1837 5.53845 22.252 7.47016 22.252 9.84427V22.8022C22.252 23.2683 22.6302 23.6465 23.0962 23.6465C23.5623 23.6465 23.9405 23.2683 23.9405 22.8022V19.3306C25.9127 18.9355 27.402 17.1929 27.402 15.1092V6.38273C27.402 5.91669 27.0238 5.53845 26.5578 5.53845ZM25.7135 15.1126C25.7135 16.2608 24.9705 17.2368 23.9405 17.588V9.84427C23.9405 8.69605 24.6835 7.72007 25.7135 7.36885V15.1126Z" fill="#E384FF"/>
</svg>
