<svg width="36" height="36" viewBox="0 0 36 36" fill="none" xmlns="http://www.w3.org/2000/svg">
<path d="M16.0251 25.4936H11.1812C10.7535 25.4936 10.4027 25.1277 10.4027 24.6816V10.3176C10.4027 9.87156 10.7535 9.50569 11.1812 9.50569C11.8443 9.50569 12.3826 8.94436 12.3826 8.25272C12.3826 7.56109 11.8443 6.99976 11.1812 6.99976C9.42721 6.99976 8 8.48828 8 10.3176V24.6866C8 26.516 9.42721 28.0045 11.1812 28.0045H16.0251C16.6882 28.0045 17.2264 27.4432 17.2264 26.7515C17.2264 26.0599 16.6882 25.4986 16.0251 25.4986V25.4936Z" fill="#E384FF"/>
<path d="M25.8188 6.99927H21.9504C21.2872 6.99927 20.749 7.5606 20.749 8.25224C20.749 8.94387 21.2872 9.5052 21.9504 9.5052H25.8188C26.2464 9.5052 26.5972 9.87107 26.5972 10.3171V24.6862C26.5972 25.1322 26.2464 25.4981 25.8188 25.4981H21.9696C21.3065 25.4981 20.7682 26.0594 20.7682 26.7511C20.7682 27.4427 21.3065 28.004 21.9696 28.004H25.8188C27.5727 28.004 29 26.5155 29 24.6862V10.3171C29 8.48779 27.5727 6.99927 25.8188 6.99927Z" fill="#E384FF"/>
<path d="M12.7334 19.8129C13.9251 21.0558 15.4869 21.6723 17.0487 21.6723C18.2308 21.6723 19.4129 21.3164 20.4317 20.6098L24.1847 24.524C24.4202 24.7696 24.7278 24.8899 25.0353 24.8899C25.3428 24.8899 25.6504 24.7696 25.8859 24.524C26.3568 24.0329 26.3568 23.241 25.8859 22.7498L22.1376 18.8406C22.8008 17.8031 23.1612 16.5852 23.1612 15.3122C23.1612 13.6132 22.5269 12.0144 21.3736 10.8116C20.2203 9.60871 18.6873 8.94714 17.0583 8.94714C15.4292 8.94714 13.8963 9.60871 12.743 10.8116C10.3643 13.2924 10.3643 17.332 12.743 19.8129H12.7334ZM14.4345 12.5807C15.1361 11.849 16.0636 11.4481 17.0535 11.4481C18.0434 11.4481 18.9708 11.849 19.6724 12.5807C20.374 13.3075 20.7585 14.2798 20.7585 15.3122C20.7585 16.3447 20.374 17.312 19.6724 18.0437C18.2308 19.5472 15.8809 19.5472 14.4393 18.0437C12.9977 16.5401 12.9977 14.0893 14.4393 12.5858L14.4345 12.5807Z" fill="#E384FF"/>
</svg>
