<svg width="36" height="36" viewBox="0 0 36 36" fill="none" xmlns="http://www.w3.org/2000/svg">
<path fill-rule="evenodd" clip-rule="evenodd" d="M26.7948 9.90694H9.20519C8.53776 9.90694 8 9.47979 8 8.95347C8 8.42716 8.53776 8 9.20519 8H26.7948C27.4623 8 28 8.42716 28 8.95347C28 9.47979 27.4584 9.90694 26.7948 9.90694ZM9.20519 12.5233H26.7948C27.4623 12.5233 28 12.9504 28 13.4767C28 14.0031 27.4584 14.4302 26.7948 14.4302H9.20519C8.53776 14.4302 8 14.0031 8 13.4767C8 12.9504 8.54157 12.5233 9.20519 12.5233ZM26.7948 17.0465H9.20519C8.54157 17.0465 8 17.4737 8 18C8 18.5263 8.53776 18.9535 9.20519 18.9535H26.7948C27.4584 18.9535 28 18.5263 28 18C28 17.4737 27.4623 17.0465 26.7948 17.0465ZM26.7948 26.0931H9.20519C8.54157 26.0931 8 26.5202 8 27.0466C8 27.5729 8.53776 28 9.20519 28H26.7948C27.4584 28 28 27.5729 28 27.0466C28 26.5202 27.4623 26.0931 26.7948 26.0931ZM26.7948 21.5698H9.20519C8.54157 21.5698 8 21.997 8 22.5233C8 23.0496 8.53776 23.4768 9.20519 23.4768H26.7948C27.4584 23.4768 28 23.0496 28 22.5233C28 21.997 27.4623 21.5698 26.7948 21.5698Z" fill="#E384FF"/>
</svg>
