<svg width="36" height="36" viewBox="0 0 36 36" fill="none" xmlns="http://www.w3.org/2000/svg">
<g clip-path="url(#clip0_73_778)">
<path d="M23.7161 8H12.2839C10.4737 8 9 9.47366 9 11.2839V22.7161C9 24.5263 10.4737 26 12.2839 26H23.7161C25.5263 26 27 24.5263 27 22.7161V11.2839C27 9.47366 25.5263 8 23.7161 8ZM24.9475 11.2839V18.9478C23.9542 19.0135 22.9731 19.0914 22.0043 19.1777V17.8969C23.519 17.4536 24.6274 16.0538 24.6274 14.3954C24.6274 12.384 22.9895 10.7462 20.9781 10.7462C18.9667 10.7462 17.3288 12.384 17.3288 14.3954C17.3288 16.0497 18.4372 17.4495 19.9519 17.8969V19.3747C16.8363 19.699 13.8602 20.1218 11.0525 20.6431V15.668C13.8151 15.0276 15.9332 12.8356 16.4832 10.0525H23.7161C24.3934 10.0525 24.9475 10.6066 24.9475 11.2839ZM20.9781 15.9964C20.0956 15.9964 19.3813 15.278 19.3813 14.3995C19.3813 13.5211 20.0997 12.8027 20.9781 12.8027C21.8566 12.8027 22.5749 13.5211 22.5749 14.3995C22.5749 15.278 21.8566 15.9964 20.9781 15.9964ZM11.0525 11.2839C11.0525 10.6066 11.6066 10.0525 12.2839 10.0525H14.3815C13.9177 11.6985 12.6698 13.008 11.0525 13.5457V11.2839ZM24.9475 22.7161C24.9475 23.3934 24.3934 23.9475 23.7161 23.9475H12.2839C12.1977 23.9475 12.1156 23.9393 12.0376 23.9229C12.0089 23.9188 11.9843 23.9065 11.9596 23.8983C11.9104 23.886 11.857 23.8696 11.8078 23.8531C11.779 23.8408 11.7585 23.8244 11.7298 23.8121C11.6846 23.7875 11.6395 23.7669 11.5984 23.7423C11.5738 23.7259 11.5491 23.7013 11.5245 23.6807C11.4876 23.652 11.4506 23.6233 11.4178 23.5904C11.3932 23.5658 11.3767 23.5412 11.3562 23.5124C11.3275 23.4796 11.2946 23.4468 11.27 23.4057C11.2495 23.377 11.2372 23.3482 11.2208 23.3195C11.2002 23.2785 11.1715 23.2415 11.1551 23.2005C11.1428 23.1676 11.1345 23.1348 11.1222 23.1019C11.1058 23.0568 11.0894 23.0157 11.0812 22.9706C11.073 22.9336 11.073 22.8967 11.0689 22.8639C11.0648 22.8187 11.0566 22.7777 11.0566 22.7325C15.3216 21.9238 19.9929 21.3409 24.9517 21.0084V22.7202L24.9475 22.7161Z" fill="#E384FF"/>
</g>
<defs>
<clipPath id="clip0_73_778">
<rect width="18" height="18" fill="white" transform="translate(9 8)"/>
</clipPath>
</defs>
</svg>
